<svg width="57" height="56" viewBox="0 0 57 56" fill="none" xmlns="http://www.w3.org/2000/svg">
<g id="bx:support">
<path id="Vector" d="M28.5001 4.6665C15.6341 4.6665 5.16675 15.1338 5.16675 27.9998V37.6668C5.16675 40.0562 7.25975 41.9998 9.83342 41.9998H12.1667C12.7856 41.9998 13.3791 41.754 13.8167 41.3164C14.2542 40.8788 14.5001 40.2853 14.5001 39.6665V27.6662C14.5001 27.0473 14.2542 26.4538 13.8167 26.0163C13.3791 25.5787 12.7856 25.3328 12.1667 25.3328H10.0481C11.3454 16.3028 19.1154 9.33317 28.5001 9.33317C37.8848 9.33317 45.6548 16.3028 46.9521 25.3328H44.8334C44.2146 25.3328 43.6211 25.5787 43.1835 26.0163C42.7459 26.4538 42.5001 27.0473 42.5001 27.6662V41.9998C42.5001 44.5735 40.4071 46.6665 37.8334 46.6665H33.1667V44.3332H23.8334V51.3332H37.8334C42.9808 51.3332 47.1668 47.1472 47.1668 41.9998C49.7404 41.9998 51.8334 40.0562 51.8334 37.6668V27.9998C51.8334 15.1338 41.3661 4.6665 28.5001 4.6665Z" fill="#093BA8"/>
</g>
</svg>
