<svg width="56" height="56" viewBox="0 0 56 56" fill="none" xmlns="http://www.w3.org/2000/svg">
<g id="bx:support">
<path id="Vector" d="M28.0003 4.66675C15.1343 4.66675 4.66699 15.1341 4.66699 28.0001V37.6671C4.66699 40.0564 6.75999 42.0001 9.33366 42.0001H11.667C12.2858 42.0001 12.8793 41.7543 13.3169 41.3167C13.7545 40.8791 14.0003 40.2856 14.0003 39.6668V27.6664C14.0003 27.0476 13.7545 26.4541 13.3169 26.0165C12.8793 25.5789 12.2858 25.3331 11.667 25.3331H9.54833C10.8457 16.3031 18.6157 9.33342 28.0003 9.33342C37.385 9.33342 45.155 16.3031 46.4523 25.3331H44.3337C43.7148 25.3331 43.1213 25.5789 42.6837 26.0165C42.2462 26.4541 42.0003 27.0476 42.0003 27.6664V42.0001C42.0003 44.5737 39.9073 46.6668 37.3337 46.6668H32.667V44.3334H23.3337V51.3334H37.3337C42.481 51.3334 46.667 47.1474 46.667 42.0001C49.2407 42.0001 51.3337 40.0564 51.3337 37.6671V28.0001C51.3337 15.1341 40.8663 4.66675 28.0003 4.66675Z" fill="white"/>
</g>
</svg>
