<svg width="56" height="56" viewBox="0 0 56 56" fill="none" xmlns="http://www.w3.org/2000/svg">
<g id="Group">
<g id="Group_2">
<path id="Vector" d="M29.4226 27.5247C29.2727 27.0777 28.9216 26.7265 28.4725 26.5766L12.5739 21.2771C12.0336 21.0992 11.4419 21.2357 11.0382 21.6382L5.73866 26.9391C5.37088 27.3069 5.22163 27.8392 5.34023 28.3429C5.45883 28.8486 5.8326 29.2571 6.32431 29.421L21.514 34.482L26.5763 49.6751C26.7422 50.1662 27.1486 50.5406 27.655 50.6592C27.7703 50.6872 27.8842 50.7005 28.0001 50.7005C28.3919 50.7005 28.7757 50.5446 29.0588 50.2614L34.3617 44.9619C34.7621 44.5594 34.902 43.9665 34.7228 43.4261L29.4226 27.5247ZM28.6544 46.425L24.1224 32.823C23.9725 32.3772 23.6214 32.0261 23.1723 31.8762L9.57372 27.3442L12.5033 24.4132L26.8128 29.1838L31.5853 43.4947L28.6544 46.425Z" fill="#093BA8"/>
<path id="Vector_2" d="M40.0217 16.9243C39.8718 16.4765 39.5207 16.1254 39.075 15.9755L23.1731 10.6759C22.636 10.502 22.0411 10.6386 21.6406 11.039L16.3378 16.3386C15.97 16.7064 15.8208 17.2367 15.9394 17.7418C16.0579 18.2482 16.4317 18.6559 16.9234 18.8205L32.1164 23.8829L37.1787 39.0727C37.3413 39.567 37.7511 39.9381 38.2554 40.0581C38.3694 40.0841 38.4866 40.0974 38.6006 40.0974C38.9943 40.0974 39.3768 39.9448 39.6613 39.6583L44.9608 34.3587C45.3612 33.9556 45.5011 33.3633 45.3219 32.823L40.0217 16.9243ZM39.2542 35.8225L34.7222 22.2238C34.5723 21.7781 34.2212 21.427 33.7754 21.2771L20.1735 16.743L23.1044 13.8141L37.4153 18.5833L42.1844 32.8929L39.2542 35.8225Z" fill="#093BA8"/>
<path id="Vector_3" d="M50.6241 6.32503C50.4742 5.87596 50.1231 5.52483 49.674 5.37492L33.7754 0.0753492C33.2384 -0.100548 32.6421 0.0360392 32.2397 0.437804L26.9402 5.73937C26.5724 6.10516 26.4198 6.63751 26.5397 7.14122C26.6603 7.64892 27.0308 8.05535 27.5251 8.22126L42.7148 13.2836L47.7771 28.4734C47.943 28.9658 48.3495 29.3389 48.8572 29.4588C48.9711 29.4848 49.085 29.4982 49.201 29.4982C49.5927 29.4982 49.9765 29.3436 50.2597 29.0591L55.5592 23.7595C55.9623 23.3571 56.1022 22.7641 55.9236 22.2237L50.6241 6.32503ZM49.8566 25.2233L45.3213 11.6246C45.1713 11.1769 44.8202 10.8257 44.3745 10.6758L30.7746 6.14247L33.7055 3.21285L48.015 7.98406L52.7842 22.2937L49.8566 25.2233Z" fill="#093BA8"/>
<path id="Vector_4" d="M18.4592 37.5403C17.8736 36.9547 16.9235 36.9547 16.3378 37.5403L0.439239 53.4397C-0.146413 54.0253 -0.146413 54.9755 0.439239 55.5611C0.731732 55.8536 1.11617 56.0002 1.49994 56.0002C1.88372 56.0002 2.26749 55.8536 2.56065 55.5611L18.4592 39.6584C19.0449 39.0728 19.0449 38.124 18.4592 37.5403Z" fill="#093BA8"/>
<path id="Vector_5" d="M5.20819 42.3102L10.5077 37.0106C11.0934 36.425 11.0934 35.4749 10.5077 34.8892C9.92206 34.3035 8.97529 34.3035 8.38964 34.8892L3.09012 40.1888C2.50447 40.7744 2.50447 41.7245 3.09012 42.3102C3.38261 42.6027 3.76572 42.7493 4.14949 42.7493C4.53326 42.7493 4.9157 42.6027 5.20819 42.3102Z" fill="#093BA8"/>
<path id="Vector_6" d="M18.9897 45.4881L13.6902 50.791C13.1046 51.3746 13.1046 52.3247 13.6902 52.9091C13.9827 53.2016 14.3658 53.3481 14.7496 53.3481C15.1334 53.3481 15.5151 53.2016 15.8083 52.9091L21.1111 47.6095C21.6968 47.0238 21.6968 46.0737 21.1111 45.4881C20.5255 44.9024 19.5747 44.9024 18.9897 45.4881Z" fill="#093BA8"/>
</g>
</g>
</svg>
