<svg width="57" height="56" viewBox="0 0 57 56" fill="none" xmlns="http://www.w3.org/2000/svg">
<g id="healthicons:money-bag">
<path id="Vector" fill-rule="evenodd" clip-rule="evenodd" d="M28.5454 7C23.2756 7 18.4748 8.74067 15.6339 10.1628C15.3773 10.2912 15.1381 10.4172 14.9153 10.5385C14.4743 10.7788 14.0986 11.0028 13.7999 11.2L17.0316 15.9577L18.5529 16.5632C24.4983 19.5627 32.4713 19.5627 38.4178 16.5632L40.1444 15.6672L43.1999 11.2C42.5671 10.7871 41.9089 10.4142 41.2294 10.0835C38.4026 8.6765 33.7161 7 28.5466 7H28.5454ZM21.0298 12.3853C19.8854 12.1712 18.7552 11.8876 17.6453 11.536C20.3064 10.3542 24.2719 9.1 28.5454 9.1C31.5053 9.1 34.3041 9.702 36.6188 10.465C33.9063 10.8465 31.0118 11.494 28.2538 12.2908C26.0838 12.9185 23.5474 12.8508 21.0298 12.3853ZM39.6498 18.2933L39.3628 18.438C32.8224 21.7373 24.1471 21.7373 17.6068 18.438L17.3349 18.3003C7.50928 29.0815 0.00760841 48.9965 28.5454 48.9965C57.0833 48.9965 49.3984 28.7093 39.6498 18.2933ZM27.3333 28C26.7144 28 26.1209 28.2458 25.6834 28.6834C25.2458 29.121 24.9999 29.7145 24.9999 30.3333C24.9999 30.9522 25.2458 31.5457 25.6834 31.9832C26.1209 32.4208 26.7144 32.6667 27.3333 32.6667V28ZM29.6666 25.6667V24.5H27.3333V25.6667C26.0956 25.6667 24.9086 26.1583 24.0334 27.0335C23.1583 27.9087 22.6666 29.0957 22.6666 30.3333C22.6666 31.571 23.1583 32.758 24.0334 33.6332C24.9086 34.5083 26.0956 35 27.3333 35V39.6667C26.3183 39.6667 25.4538 39.0192 25.1318 38.1115C25.084 37.963 25.0069 37.8256 24.9051 37.7074C24.8033 37.5892 24.6789 37.4926 24.5391 37.4234C24.3993 37.3541 24.247 37.3136 24.0913 37.3042C23.9356 37.2949 23.7796 37.3168 23.6325 37.3688C23.4854 37.4207 23.3503 37.5017 23.235 37.6068C23.1197 37.7119 23.0267 37.8391 22.9615 37.9808C22.8962 38.1225 22.8601 38.2758 22.8551 38.4317C22.8501 38.5876 22.8765 38.7429 22.9326 38.8885C23.2544 39.7985 23.8504 40.5863 24.6385 41.1435C25.4266 41.7008 26.3681 42 27.3333 42V43.1667H29.6666V42C30.9043 42 32.0913 41.5083 32.9664 40.6332C33.8416 39.758 34.3333 38.571 34.3333 37.3333C34.3333 36.0957 33.8416 34.9087 32.9664 34.0335C32.0913 33.1583 30.9043 32.6667 29.6666 32.6667V28C30.6816 28 31.5461 28.6475 31.8681 29.5552C31.9159 29.7037 31.993 29.8411 32.0948 29.9593C32.1966 30.0775 32.321 30.174 32.4608 30.2433C32.6006 30.3125 32.7529 30.353 32.9086 30.3624C33.0643 30.3718 33.2203 30.3499 33.3674 30.2979C33.5145 30.2459 33.6496 30.165 33.7649 30.0599C33.8801 29.9548 33.9732 29.8276 34.0384 29.6859C34.1037 29.5442 34.1398 29.3909 34.1448 29.235C34.1498 29.079 34.1234 28.9237 34.0673 28.7782C33.7455 27.8682 33.1495 27.0804 32.3614 26.5231C31.5733 25.9659 30.6318 25.6667 29.6666 25.6667ZM29.6666 35V39.6667C30.2854 39.6667 30.8789 39.4208 31.3165 38.9832C31.7541 38.5457 31.9999 37.9522 31.9999 37.3333C31.9999 36.7145 31.7541 36.121 31.3165 35.6834C30.8789 35.2458 30.2854 35 29.6666 35Z" fill="#093BA8"/>
</g>
</svg>
