<svg width="56" height="56" viewBox="0 0 56 56" fill="none" xmlns="http://www.w3.org/2000/svg">
<g id="icons8:adventures">
<path id="Vector" d="M28 5.25C15.456 5.25 5.25 15.456 5.25 28C5.25 40.544 15.456 50.75 28 50.75C40.544 50.75 50.75 40.544 50.75 28C50.75 15.456 40.544 5.25 28 5.25ZM26.0312 8.86025C26.1012 8.8515 26.1782 8.8655 26.25 8.86025V10.5H29.75V8.8585C34.2277 9.25908 38.4223 11.2201 41.6011 14.3989C44.7799 17.5777 46.7409 21.7723 47.1415 26.25H45.5V29.75H47.1415C46.7409 34.2277 44.7799 38.4223 41.6011 41.6011C38.4223 44.7799 34.2277 46.7409 29.75 47.1415V45.5H26.25V47.1415C21.7723 46.7409 17.5777 44.7799 14.3989 41.6011C11.2201 38.4223 9.25908 34.2277 8.8585 29.75H10.5V26.25H8.8585C9.6845 17.0747 16.8857 9.7825 26.0312 8.8585V8.86025ZM38.6662 17.3355L23.7913 23.7895L17.3337 38.6645L32.2088 32.2105L38.6662 17.3355ZM28 25.375C29.4 25.375 30.625 26.6 30.625 28C30.625 29.4 29.4 30.625 28 30.625C26.6 30.625 25.375 29.4 25.375 28C25.375 26.6 26.6 25.375 28 25.375Z" fill="#093BA8"/>
</g>
</svg>
