<svg width="57" height="56" viewBox="0 0 57 56" fill="none" xmlns="http://www.w3.org/2000/svg">
<g id="icons8:adventures">
<path id="Vector" d="M28.5 5.25C15.956 5.25 5.75 15.456 5.75 28C5.75 40.544 15.956 50.75 28.5 50.75C41.044 50.75 51.25 40.544 51.25 28C51.25 15.456 41.044 5.25 28.5 5.25ZM26.5312 8.86025C26.6012 8.8515 26.6782 8.8655 26.75 8.86025V10.5H30.25V8.8585C34.7277 9.25908 38.9223 11.2201 42.1011 14.3989C45.2799 17.5777 47.2409 21.7723 47.6415 26.25H46V29.75H47.6415C47.2409 34.2277 45.2799 38.4223 42.1011 41.6011C38.9223 44.7799 34.7277 46.7409 30.25 47.1415V45.5H26.75V47.1415C22.2723 46.7409 18.0777 44.7799 14.8989 41.6011C11.7201 38.4223 9.75908 34.2277 9.3585 29.75H11V26.25H9.3585C10.1845 17.0747 17.3857 9.7825 26.5312 8.8585V8.86025ZM39.1662 17.3355L24.2913 23.7895L17.8337 38.6645L32.7088 32.2105L39.1662 17.3355ZM28.5 25.375C29.9 25.375 31.125 26.6 31.125 28C31.125 29.4 29.9 30.625 28.5 30.625C27.1 30.625 25.875 29.4 25.875 28C25.875 26.6 27.1 25.375 28.5 25.375Z" fill="#093BA8"/>
</g>
</svg>
