<svg width="56" height="56" viewBox="0 0 56 56" fill="none" xmlns="http://www.w3.org/2000/svg">
<g id="mdi:teacher">
<path id="Vector" d="M46.6667 39.6668C47.9043 39.6668 49.0913 39.1751 49.9665 38.2999C50.8417 37.4247 51.3333 36.2378 51.3333 35.0001V9.33342C51.3333 8.09574 50.8417 6.90875 49.9665 6.03358C49.0913 5.15841 47.9043 4.66675 46.6667 4.66675H22.0733C22.89 6.09008 23.3333 7.70008 23.3333 9.33342H46.6667V35.0001H25.6667V39.6668M35 16.3334V21.0001H21V51.3334H16.3333V37.3334H11.6667V51.3334H7V32.6667H3.5V21.0001C3.5 19.7624 3.99167 18.5754 4.86683 17.7003C5.742 16.8251 6.92899 16.3334 8.16667 16.3334H35ZM18.6667 9.33342C18.6667 10.5711 18.175 11.7581 17.2998 12.6332C16.4247 13.5084 15.2377 14.0001 14 14.0001C12.7623 14.0001 11.5753 13.5084 10.7002 12.6332C9.825 11.7581 9.33333 10.5711 9.33333 9.33342C9.33333 8.09574 9.825 6.90875 10.7002 6.03358C11.5753 5.15841 12.7623 4.66675 14 4.66675C15.2377 4.66675 16.4247 5.15841 17.2998 6.03358C18.175 6.90875 18.6667 8.09574 18.6667 9.33342Z" fill="#093BA8"/>
</g>
</svg>
