<svg width="56" height="56" viewBox="0 0 56 56" fill="none" xmlns="http://www.w3.org/2000/svg">
<g id="ri:global-fill">
<path id="Vector" d="M4.78334 30.3333H17.563C17.9619 37.7235 20.3172 44.8749 24.388 51.0557C19.2891 50.2553 14.5992 47.7877 11.0516 44.0388C7.50408 40.2898 5.29893 35.471 4.78101 30.3357L4.78334 30.3333ZM4.78334 25.6667C5.30115 20.5317 7.50596 15.7131 11.053 11.9642C14.6001 8.2153 19.2895 5.74751 24.388 4.94666C20.3176 11.1267 17.9623 18.2773 17.563 25.6667H4.78334ZM51.2167 25.6667H38.437C38.0377 18.2773 35.6824 11.1267 31.612 4.94666C36.7105 5.74751 41.3999 8.2153 44.947 11.9642C48.4941 15.7131 50.6989 20.5317 51.2167 25.6667ZM51.2167 30.3333C50.6994 35.4687 48.4948 40.2879 44.9476 44.0372C41.4005 47.7866 36.7108 50.2547 31.612 51.0557C35.6824 44.8756 38.0377 37.725 38.437 30.3357H51.219L51.2167 30.3333ZM22.2367 30.3333H33.7633C33.3793 36.6321 31.3957 42.729 28 48.048C24.6043 42.729 22.6207 36.6321 22.2367 30.3333ZM22.2367 25.6667C22.6215 19.3695 24.6051 13.2743 28 7.95666C31.395 13.2743 33.3785 19.3695 33.7633 25.6667H22.2367Z" fill="#093BA8"/>
</g>
</svg>
