<svg width="57" height="56" viewBox="0 0 57 56" fill="none" xmlns="http://www.w3.org/2000/svg">
<g id="ri:global-fill">
<path id="Vector" d="M5.28358 30.3333H18.0632C18.4621 37.7235 20.8175 44.8749 24.8882 51.0557C19.7893 50.2553 15.0994 47.7877 11.5519 44.0388C8.00432 40.2898 5.79918 35.471 5.28125 30.3357L5.28358 30.3333ZM5.28358 25.6667C5.80139 20.5317 8.0062 15.7131 11.5533 11.9642C15.1004 8.2153 19.7898 5.74751 24.8882 4.94666C20.8179 11.1267 18.4625 18.2773 18.0632 25.6667H5.28358ZM51.7169 25.6667H38.9372C38.538 18.2773 36.1826 11.1267 32.1123 4.94666C37.2107 5.74751 41.9001 8.2153 45.4472 11.9642C48.9943 15.7131 51.1991 20.5317 51.7169 25.6667ZM51.7169 30.3333C51.1996 35.4687 48.995 40.2879 45.4479 44.0372C41.9007 47.7866 37.2111 50.2547 32.1123 51.0557C36.1826 44.8756 38.538 37.725 38.9372 30.3357H51.7192L51.7169 30.3333ZM22.7369 30.3333H34.2636C33.8795 36.6321 31.896 42.729 28.5002 48.048C25.1045 42.729 23.121 36.6321 22.7369 30.3333ZM22.7369 25.6667C23.1218 19.3695 25.1053 13.2743 28.5002 7.95666C31.8952 13.2743 33.8787 19.3695 34.2636 25.6667H22.7369Z" fill="#093BA8"/>
</g>
</svg>
