<svg width="80" height="94" viewBox="0 0 80 94" fill="none" xmlns="http://www.w3.org/2000/svg">
<g id="University of Portsmouth svg" clip-path="url(#clip0_314_6469)">
<g id="Stacked">
<g id="Group">
<g id="Group_2">
<path id="Vector" d="M0 34.3273C0 43.7044 7.59322 51.2468 16.8814 51.2468H33.7627V0.488281H0V34.3273Z" fill="#009EE2"/>
<path id="Vector_2" d="M33.7627 17.4077H16.8813V51.2467V68.1662L33.7627 51.2467C43.1186 51.2467 50.6441 43.6363 50.6441 34.3272C50.7119 25.0181 43.1186 17.4077 33.7627 17.4077Z" fill="#621360"/>
<path id="Vector_3" d="M33.7627 0.488281V17.4078H16.8813L33.7627 0.488281Z" fill="#0076A6"/>
<path id="Vector_4" d="M33.7627 17.4077H16.8813V51.2467H33.7627V17.4077Z" fill="#3C0238"/>
</g>
<g id="Group_3">
<path id="Vector_5" d="M3.45763 82.7755C1.15254 82.7755 0 81.4165 0 79.3781V74.2139H1.62712V79.3781C1.62712 80.6012 2.23729 81.4165 3.52542 81.4165C4.81356 81.4165 5.42373 80.6012 5.42373 79.3781V74.2139H7.05085V79.3781C6.98305 81.4165 5.76271 82.7755 3.45763 82.7755Z" fill="#505456"/>
<path id="Vector_6" d="M13.7627 82.6396L9.89831 76.8639V82.6396H8.33899V74.2139H10.0339L13.8305 79.9217V74.2139H15.3898V82.6396H13.7627Z" fill="#505456"/>
<path id="Vector_7" d="M16.8813 82.6396V74.2139H18.5085V82.6396H16.8813Z" fill="#505456"/>
<path id="Vector_8" d="M24.1356 82.6396H22.3729L19.4576 74.2139H21.1526L23.322 80.6691L25.4915 74.2139H27.1187L24.1356 82.6396Z" fill="#505456"/>
<path id="Vector_9" d="M28 82.6396V74.2139H34.3051V75.5729H29.5593V77.5434H33.6949V78.9024H29.5593V81.2127H34.3051V82.5717H28V82.6396Z" fill="#505456"/>
<path id="Vector_10" d="M40.6102 82.6396L39.1186 79.446H37.1525V82.6396H35.5254V74.2139H39.2542C41.3559 74.2139 42.3051 75.5049 42.3051 76.8639C42.3051 78.0191 41.6271 78.9024 40.678 79.2422L42.3051 82.7076H40.6102V82.6396ZM39.2542 75.5729H37.1525V78.087H39.322C40.2034 78.087 40.7458 77.6114 40.7458 76.8639C40.7458 76.1165 40.2034 75.5729 39.2542 75.5729Z" fill="#505456"/>
<path id="Vector_11" d="M49.2881 81.8922C48.6102 82.5037 47.5932 82.7755 46.5085 82.7755C45.5593 82.7755 44.6102 82.5717 43.8644 81.8922C43.322 81.4165 42.9153 80.737 42.9153 79.9216H44.5424C44.5424 80.3293 44.7458 80.737 45.0169 80.9409C45.4237 81.2806 45.9661 81.4165 46.5085 81.4165C47.1186 81.4165 47.7288 81.2806 48.0678 80.9409C48.2712 80.737 48.4068 80.5332 48.4068 80.1255C48.4068 79.5139 47.9322 79.2421 47.322 79.1062C46.7119 78.9703 45.9661 78.9704 45.3559 78.9024C44.1356 78.6986 43.1186 77.9511 43.1186 76.5242C43.1186 75.8447 43.4576 75.3011 43.8644 74.8934C44.4746 74.3498 45.4237 74.01 46.4407 74.01C47.3898 74.01 48.339 74.2818 48.9491 74.8254C49.4915 75.3011 49.8305 75.9126 49.8305 76.5921H48.2034C48.2034 76.3203 48 75.9806 47.7966 75.7767C47.5254 75.5049 46.9153 75.3011 46.4407 75.3011C45.9661 75.3011 45.3559 75.437 45.0169 75.7767C44.8136 75.9806 44.7458 76.1844 44.7458 76.4562C44.7458 76.9998 45.1525 77.2716 45.6271 77.3396C46.1695 77.4075 46.983 77.4755 47.5254 77.5434C48.8814 77.7473 49.9661 78.5627 49.9661 79.9896C50.0339 80.9409 49.6949 81.4845 49.2881 81.8922Z" fill="#505456"/>
<path id="Vector_12" d="M51.1187 82.6396V74.2139H52.7458V82.6396H51.1187Z" fill="#505456"/>
<path id="Vector_13" d="M58.1695 75.6408V82.6396H56.5424V75.6408H53.8983V74.2139H60.7458V75.6408H58.1695Z" fill="#505456"/>
<path id="Vector_14" d="M66.1695 79.3781V82.6396H64.5424V79.3781L61.4915 74.2139H63.2542L65.4237 77.8832L67.5932 74.2139H69.2881L66.1695 79.3781Z" fill="#505456"/>
</g>
<g id="Group_4">
<path id="Vector_15" d="M3.72884 90.5216H1.83053V93.5793H0.27121V85.1536H3.79663C5.83053 85.1536 6.91528 86.2408 6.91528 87.8716C6.91528 89.4344 5.83053 90.5216 3.72884 90.5216ZM3.66104 86.4446H1.83053V89.1626H3.66104C4.74579 89.1626 5.22036 88.619 5.22036 87.8036C5.28816 86.9882 4.74579 86.4446 3.66104 86.4446Z" fill="#505456"/>
<path id="Vector_16" d="M13.5593 92.7642C12.8814 93.3757 11.9322 93.7155 10.9831 93.7155C10.0339 93.7155 9.08475 93.3757 8.40678 92.7642C7.45763 91.8129 7.25424 90.7257 7.25424 89.3667C7.25424 88.0077 7.38984 86.8525 8.40678 85.9012C9.08475 85.2897 10.0339 84.95 10.9831 84.95C11.9322 84.95 12.8814 85.2897 13.5593 85.9012C14.5085 86.8525 14.7119 87.9397 14.7119 89.3667C14.6441 90.7257 14.5085 91.8129 13.5593 92.7642ZM12.339 86.8525C12 86.5128 11.4576 86.3089 10.9153 86.3089C10.3729 86.3089 9.83051 86.5128 9.49153 86.8525C8.88136 87.4641 8.88136 88.4833 8.88136 89.2987C8.88136 90.0462 8.88136 91.1334 9.49153 91.7449C9.83051 92.0847 10.3729 92.2885 10.9153 92.2885C11.4576 92.2885 12 92.0847 12.339 91.7449C12.9492 91.1334 12.9492 90.1141 12.9492 89.2987C13.017 88.5513 13.017 87.4641 12.339 86.8525Z" fill="#505456"/>
<path id="Vector_17" d="M20.678 93.5115L19.1865 90.3178H17.2203V93.5115H15.5932V85.0857H19.322C21.4237 85.0857 22.4407 86.3767 22.4407 87.7357C22.4407 88.8909 21.7627 89.7742 20.8136 90.114L22.4407 93.5794H20.678V93.5115ZM19.3898 86.4447H17.2203V88.9588H19.3898C20.339 88.9588 20.8136 88.4832 20.8136 87.7357C20.8136 87.0562 20.2712 86.4447 19.3898 86.4447Z" fill="#505456"/>
<path id="Vector_18" d="M27.1864 86.5126V93.5115H25.5593V86.5126H22.9152V85.0857H29.8305V86.5126H27.1864Z" fill="#505456"/>
<path id="Vector_19" d="M36.4746 92.7641C35.7967 93.3756 34.7797 93.6474 33.6272 93.6474C32.678 93.6474 31.6611 93.3756 30.9831 92.7641C30.4407 92.2884 30.034 91.6089 30.034 90.7935H31.6611C31.6611 91.2012 31.8645 91.6089 32.1357 91.8128C32.5424 92.1525 33.0848 92.2885 33.6272 92.2885C34.2374 92.2885 34.8475 92.1525 35.1865 91.8128C35.3899 91.6089 35.5255 91.4051 35.5255 90.9974C35.5255 90.3858 35.0509 90.1141 34.4407 89.9782C33.8306 89.8423 33.0848 89.8422 32.4746 89.7743C31.2543 89.5704 30.2374 88.823 30.2374 87.3961C30.2374 86.7166 30.5763 86.173 30.9831 85.6973C31.5933 85.1537 32.5424 84.814 33.6272 84.814C34.5763 84.814 35.5255 85.0858 36.1357 85.6294C36.678 86.105 37.017 86.7166 37.017 87.464H35.3899C35.3899 87.1922 35.1865 86.8525 34.9831 86.6486C34.7119 86.3768 34.1018 86.173 33.6272 86.173C33.1526 86.173 32.5424 86.3089 32.2035 86.6486C32.0001 86.8525 31.9323 87.0563 31.9323 87.3961C31.9323 87.9397 32.3391 88.2115 32.8136 88.3474C33.356 88.4153 34.1696 88.4833 34.7797 88.5512C36.1357 88.7551 37.2204 89.5705 37.2204 90.9974C37.2204 91.8128 36.8814 92.3564 36.4746 92.7641Z" fill="#505456"/>
<path id="Vector_20" d="M45.6949 93.5115V87.4639L43.3898 93.3756H42.1695L39.8644 87.396V93.5115H38.3051V85.0857H40.4745L42.7796 91.1332L45.1525 85.0857H47.2542V93.5115H45.6949Z" fill="#505456"/>
<path id="Vector_21" d="M54.5085 92.7642C53.8305 93.3757 52.8813 93.7155 51.9322 93.7155C50.983 93.7155 50.0339 93.3757 49.3559 92.7642C48.4068 91.8129 48.2034 90.7257 48.2034 89.3667C48.2034 88.0077 48.339 86.8525 49.3559 85.9012C50.0339 85.2897 50.983 84.95 51.9322 84.95C52.8813 84.95 53.8305 85.2897 54.5085 85.9012C55.4576 86.8525 55.661 87.9397 55.661 89.3667C55.661 90.7257 55.4576 91.8129 54.5085 92.7642ZM53.3559 86.8525C53.0169 86.5128 52.4746 86.3089 51.9322 86.3089C51.3898 86.3089 50.8474 86.5128 50.5085 86.8525C49.8983 87.4641 49.8983 88.4833 49.8983 89.2987C49.8983 90.0462 49.8983 91.1334 50.5085 91.7449C50.8474 92.0847 51.3898 92.2885 51.9322 92.2885C52.4746 92.2885 53.0169 92.0847 53.3559 91.7449C53.9661 91.1334 53.9661 90.1141 53.9661 89.2987C53.9661 88.5513 53.9661 87.4641 53.3559 86.8525Z" fill="#505456"/>
<path id="Vector_22" d="M60.1356 93.7153C57.8305 93.7153 56.6101 92.3563 56.6101 90.3178V85.0857H58.2373V90.2499C58.2373 91.473 58.8474 92.2884 60.1356 92.2884C61.4237 92.2884 62.0339 91.473 62.0339 90.2499V85.0857H63.661V90.3178C63.5932 92.2884 62.4406 93.7153 60.1356 93.7153Z" fill="#505456"/>
<path id="Vector_23" d="M68.7459 86.5126V93.5115H67.1188V86.5126H64.4747V85.0857H71.39V86.5126H68.7459Z" fill="#505456"/>
<path id="Vector_24" d="M77.4915 93.5115V89.8422H73.8305V93.5115H72.2034V85.0857H73.8305V88.4152H77.4915V85.0857H79.1186V93.5115H77.4915Z" fill="#505456"/>
</g>
<g id="Group_5">
<path id="Vector_25" d="M74.0339 82.028C73.5593 82.5037 72.8814 82.7075 72.2034 82.7075C71.5254 82.7075 70.8475 82.5037 70.3729 82.028C69.6949 81.3485 69.5593 80.5331 69.5593 79.5818C69.5593 78.5626 69.6949 77.7472 70.3729 77.0677C70.8475 76.592 71.5254 76.3882 72.2034 76.3882C72.8814 76.3882 73.5593 76.592 74.0339 77.0677C74.7119 77.7472 74.8475 78.5626 74.8475 79.5818C74.8475 80.6011 74.7119 81.4165 74.0339 82.028ZM73.2203 77.8151C72.9492 77.5433 72.5424 77.4074 72.2034 77.4074C71.8644 77.4074 71.4576 77.5433 71.1864 77.8151C70.7119 78.2228 70.7119 79.0382 70.7119 79.5818C70.7119 80.1254 70.7119 80.8729 71.1864 81.3485C71.4576 81.6203 71.8644 81.7562 72.2034 81.7562C72.6102 81.7562 72.9492 81.6203 73.2203 81.3485C73.6949 80.9408 73.6949 80.1254 73.6949 79.5818C73.6949 79.0382 73.6271 78.2908 73.2203 77.8151Z" fill="#505456"/>
<path id="Vector_26" d="M76.7458 77.5434V79.1742H79.661V80.1935H76.7458V82.6397H75.5932V76.5242H80.0678V77.5434H76.7458Z" fill="#505456"/>
</g>
</g>
</g>
</g>
<defs>
<clipPath id="clip0_314_6469">
<rect width="80" height="93.0233" fill="white" transform="translate(0 0.488281)"/>
</clipPath>
</defs>
</svg>
