<svg width="56" height="56" viewBox="0 0 56 56" fill="none" xmlns="http://www.w3.org/2000/svg">
<g id="vaadin:medal">
<path id="Vector" d="M34.9992 42.7C33.9492 42.7 33.2492 42.35 32.1992 42L27.9992 40.25L23.7992 42C23.0992 42.35 22.0492 42.7 20.9992 42.7C20.2992 42.7 19.9492 42.7 19.2492 42.35L17.4992 56L27.9992 49L38.4992 56L36.3992 42.35C36.0492 42.7 35.3492 42.7 34.9992 42.7ZM45.1492 20.65C44.7992 19.95 44.7992 18.9 45.1492 18.2L47.2492 14C47.9492 12.6 47.2492 10.85 45.4992 10.15L40.9492 8.4C40.2492 8.05 39.5492 7.35 39.1992 6.65L37.4492 2.1C37.0992 0.7 36.0492 0 34.9992 0C34.6492 0 33.9492 0 33.5992 0.35L29.0492 2.45H27.9992C27.6492 2.45 27.2992 2.45 26.9492 2.1L22.3992 0.35C22.0492 0 21.3492 0 20.9992 0C19.9492 0 18.8992 0.7 18.1992 1.75L16.4492 6.65C16.4492 7.35 15.7492 8.05 15.0492 8.4L10.1492 10.15C8.74922 10.5 8.04922 12.25 8.74922 14L10.8492 18.55C11.1992 19.25 11.1992 20.3 10.8492 21L8.74922 25.2C8.04922 26.6 8.74922 28.35 10.4992 29.05L15.0492 30.8C15.7492 31.15 16.4492 31.85 16.7992 32.55L18.5492 37.1C18.8992 38.5 19.9492 39.2 20.9992 39.2C21.3492 39.2 21.6992 39.2 22.0492 38.85L26.5992 36.75C26.9492 36.75 27.2992 36.4 27.6492 36.4C27.9992 36.4 28.3492 36.4 28.6992 36.75L33.2492 38.85C33.5992 39.2 33.9492 39.2 34.2992 39.2C35.3492 39.2 36.3992 38.5 37.0992 37.45L38.8492 32.9C39.1992 32.2 39.8992 31.5 40.5992 31.15L45.1492 29.4C46.5492 28.7 47.5992 26.95 46.8992 25.55L45.1492 20.65ZM27.9992 33.6C20.2992 33.6 13.9992 27.3 13.9992 19.6C13.9992 11.9 20.2992 5.6 27.9992 5.6C35.6992 5.6 41.9992 11.9 41.9992 19.6C41.9992 27.3 35.6992 33.6 27.9992 33.6Z" fill="white"/>
<path id="Vector_2" d="M38.5 19.6003C38.5 22.3851 37.3938 25.0558 35.4246 27.025C33.4555 28.9941 30.7848 30.1003 28 30.1003C25.2152 30.1003 22.5445 28.9941 20.5754 27.025C18.6062 25.0558 17.5 22.3851 17.5 19.6003C17.5 16.8156 18.6062 14.1449 20.5754 12.1757C22.5445 10.2066 25.2152 9.10034 28 9.10034C30.7848 9.10034 33.4555 10.2066 35.4246 12.1757C37.3938 14.1449 38.5 16.8156 38.5 19.6003Z" fill="white"/>
</g>
</svg>
