<svg width="57" height="56" viewBox="0 0 57 56" fill="none" xmlns="http://www.w3.org/2000/svg">
<g id="vaadin:medal">
<path id="Vector" d="M35.4992 42.7C34.4492 42.7 33.7492 42.35 32.6992 42L28.4992 40.25L24.2992 42C23.5992 42.35 22.5492 42.7 21.4992 42.7C20.7992 42.7 20.4492 42.7 19.7492 42.35L17.9992 56L28.4992 49L38.9992 56L36.8992 42.35C36.5492 42.7 35.8492 42.7 35.4992 42.7ZM45.6492 20.65C45.2992 19.95 45.2992 18.9 45.6492 18.2L47.7492 14C48.4492 12.6 47.7492 10.85 45.9992 10.15L41.4492 8.4C40.7492 8.05 40.0492 7.35 39.6992 6.65L37.9492 2.1C37.5992 0.7 36.5492 0 35.4992 0C35.1492 0 34.4492 0 34.0992 0.35L29.5492 2.45H28.4992C28.1492 2.45 27.7992 2.45 27.4492 2.1L22.8992 0.35C22.5492 0 21.8492 0 21.4992 0C20.4492 0 19.3992 0.7 18.6992 1.75L16.9492 6.65C16.9492 7.35 16.2492 8.05 15.5492 8.4L10.6492 10.15C9.24922 10.5 8.54922 12.25 9.24922 14L11.3492 18.55C11.6992 19.25 11.6992 20.3 11.3492 21L9.24922 25.2C8.54922 26.6 9.24922 28.35 10.9992 29.05L15.5492 30.8C16.2492 31.15 16.9492 31.85 17.2992 32.55L19.0492 37.1C19.3992 38.5 20.4492 39.2 21.4992 39.2C21.8492 39.2 22.1992 39.2 22.5492 38.85L27.0992 36.75C27.4492 36.75 27.7992 36.4 28.1492 36.4C28.4992 36.4 28.8492 36.4 29.1992 36.75L33.7492 38.85C34.0992 39.2 34.4492 39.2 34.7992 39.2C35.8492 39.2 36.8992 38.5 37.5992 37.45L39.3492 32.9C39.6992 32.2 40.3992 31.5 41.0992 31.15L45.6492 29.4C47.0492 28.7 48.0992 26.95 47.3992 25.55L45.6492 20.65ZM28.4992 33.6C20.7992 33.6 14.4992 27.3 14.4992 19.6C14.4992 11.9 20.7992 5.6 28.4992 5.6C36.1992 5.6 42.4992 11.9 42.4992 19.6C42.4992 27.3 36.1992 33.6 28.4992 33.6Z" fill="#093BA8"/>
<path id="Vector_2" d="M39 19.6003C39 22.3851 37.8938 25.0558 35.9246 27.025C33.9555 28.9941 31.2848 30.1003 28.5 30.1003C25.7152 30.1003 23.0445 28.9941 21.0754 27.025C19.1062 25.0558 18 22.3851 18 19.6003C18 16.8156 19.1062 14.1449 21.0754 12.1757C23.0445 10.2066 25.7152 9.10034 28.5 9.10034C31.2848 9.10034 33.9555 10.2066 35.9246 12.1757C37.8938 14.1449 39 16.8156 39 19.6003Z" fill="#093BA8"/>
</g>
</svg>
