<svg width="56" height="56" viewBox="0 0 56 56" fill="none" xmlns="http://www.w3.org/2000/svg">
<g id="wpf:search" clip-path="url(#clip0_314_13094)">
<path id="Vector" d="M21.5385 0.406006C18.763 0.405723 16.0147 0.952149 13.4504 2.01408C10.8861 3.07602 8.55612 4.63266 6.59346 6.59511C4.63081 8.55757 3.07393 10.8874 2.01173 13.4516C0.949539 16.0158 0.402832 18.7641 0.402832 21.5395C0.402549 24.3152 0.949047 27.0637 2.01111 29.6282C3.07318 32.1926 4.63002 34.5227 6.5927 36.4854C8.55539 38.4481 10.8855 40.0049 13.4499 41.067C16.0143 42.129 18.7629 42.6755 21.5385 42.6752C26.4708 42.6752 31.0004 40.9285 34.5973 38.0983L36.4819 39.9829C36.0949 40.7348 35.9579 41.5906 36.0908 42.4258C36.2236 43.2609 36.6195 44.0319 37.2207 44.6266L47.1154 54.5882C48.6511 56.126 51.1647 56.126 52.7025 54.5882L54.5871 52.7035C55.325 51.961 55.7392 50.9568 55.7392 49.91C55.7392 48.8632 55.325 47.859 54.5871 47.1165L44.6256 37.2217C44.0267 36.6245 43.2511 36.2366 42.4141 36.1155C41.5771 35.9944 40.7233 36.1467 39.9798 36.5497L38.0951 34.6651C40.562 31.5521 42.1017 27.8068 42.5376 23.8589C42.9735 19.9109 42.288 15.92 40.5597 12.3438C38.8314 8.76753 36.1302 5.75074 32.766 3.63931C29.4017 1.52788 25.5105 0.407284 21.5385 0.406006ZM21.5385 4.30877C26.1084 4.30877 30.4911 6.12416 33.7225 9.35555C36.9539 12.5869 38.7693 16.9697 38.7693 21.5395C38.7693 26.1094 36.9539 30.4921 33.7225 33.7235C30.4911 36.9549 26.1084 38.7703 21.5385 38.7703C16.9686 38.7703 12.5859 36.9549 9.35453 33.7235C6.12314 30.4921 4.30776 26.1094 4.30776 21.5395C4.30776 16.9697 6.12314 12.5869 9.35453 9.35555C12.5859 6.12416 16.9686 4.30877 21.5385 4.30877ZM10.6336 16.0882C9.48481 17.9489 8.87904 20.0937 8.88468 22.2805C8.88213 23.8281 9.18507 25.361 9.77613 26.7913C10.3672 28.2216 11.2348 29.5211 12.3291 30.6154C13.4234 31.7098 14.723 32.5773 16.1533 33.1684C17.5836 33.7595 19.1165 34.0624 20.6641 34.0598C23.097 34.0548 25.4697 33.303 27.4616 31.906C26.9246 31.9557 26.3854 31.9773 25.8462 31.9706C23.8472 31.9757 21.8669 31.5858 20.0191 30.8232C18.1712 30.0607 16.4922 28.9405 15.0786 27.5271C13.665 26.1137 12.5446 24.4349 11.7818 22.5872C11.019 20.7394 10.6288 18.7592 10.6336 16.7602C10.6336 16.5362 10.6228 16.3122 10.6336 16.0882Z" fill="#093BA8"/>
</g>
<defs>
<clipPath id="clip0_314_13094">
<rect width="56" height="56" fill="white"/>
</clipPath>
</defs>
</svg>
